<?xml version="1.0" encoding="UTF-8"?><svg id="Layer_1" xmlns="http://www.w3.org/2000/svg" viewBox="0 0 693.55 220.27"><defs><style>.cls-1{fill:#010101;}</style></defs><g><path class="cls-1" d="M1.13,29.81c2.43-2.14,4.68-4.06,6.74-5.74,2.06-1.68,3.84-3.26,5.33-4.75s2.66-2.94,3.5-4.37c.85-1.42,1.27-2.98,1.27-4.68s-.47-3.07-1.42-4.03c-.94-.96-2.23-1.44-3.86-1.44-1.98,0-3.47,.42-4.46,1.27-.99,.85-1.73,2.28-2.21,4.3l-5.23-.72c.29-1.28,.7-2.5,1.25-3.67,.54-1.17,1.28-2.19,2.21-3.07,.93-.88,2.09-1.58,3.48-2.11,1.39-.53,3.08-.79,5.06-.79,3.58,0,6.3,.9,8.14,2.71,1.84,1.81,2.76,4.22,2.76,7.22,0,1.89-.34,3.58-1.03,5.06-.69,1.49-1.66,2.95-2.93,4.39-1.26,1.44-2.78,2.94-4.56,4.49-1.78,1.55-3.77,3.34-5.98,5.35h14.93l-.67,4.85H1.13v-4.27Z"/><path class="cls-1" d="M39.82,34.94c-1.92,0-3.64-.34-5.16-1.01-1.52-.67-2.81-1.72-3.86-3.14-1.06-1.42-1.86-3.24-2.42-5.45-.56-2.21-.84-4.83-.84-7.87,0-5.89,1.07-10.27,3.22-13.15,2.14-2.88,5.23-4.32,9.26-4.32s6.89,1.42,9.05,4.25,3.24,7.24,3.24,13.22-1.1,10.47-3.29,13.27c-2.19,2.8-5.26,4.2-9.19,4.2Zm.05-4.8c1.25,0,2.3-.3,3.14-.89,.85-.59,1.54-1.43,2.06-2.52,.53-1.09,.91-2.42,1.15-3.98,.24-1.57,.36-3.33,.36-5.28s-.12-3.66-.36-5.23c-.24-1.57-.62-2.9-1.15-4.01-.53-1.1-1.22-1.95-2.06-2.54-.85-.59-1.9-.89-3.14-.89s-2.3,.3-3.14,.91c-.85,.61-1.53,1.46-2.04,2.57-.51,1.1-.88,2.43-1.1,3.98-.22,1.55-.34,3.29-.34,5.21,0,4.13,.5,7.27,1.51,9.43,1.01,2.16,2.71,3.24,5.11,3.24Z"/><path class="cls-1" d="M55.66,29.81c2.43-2.14,4.68-4.06,6.74-5.74,2.06-1.68,3.84-3.26,5.33-4.75s2.66-2.94,3.5-4.37c.85-1.42,1.27-2.98,1.27-4.68s-.47-3.07-1.42-4.03c-.94-.96-2.23-1.44-3.86-1.44-1.98,0-3.47,.42-4.46,1.27-.99,.85-1.73,2.28-2.21,4.3l-5.23-.72c.29-1.28,.7-2.5,1.25-3.67,.54-1.17,1.28-2.19,2.21-3.07,.93-.88,2.09-1.58,3.48-2.11,1.39-.53,3.08-.79,5.06-.79,3.58,0,6.3,.9,8.14,2.71,1.84,1.81,2.76,4.22,2.76,7.22,0,1.89-.34,3.58-1.03,5.06-.69,1.49-1.66,2.95-2.93,4.39-1.26,1.44-2.78,2.94-4.56,4.49-1.78,1.55-3.77,3.34-5.98,5.35h14.93l-.67,4.85h-22.32v-4.27Z"/><path class="cls-1" d="M82.92,29.81c2.43-2.14,4.68-4.06,6.74-5.74,2.06-1.68,3.84-3.26,5.33-4.75s2.66-2.94,3.5-4.37c.85-1.42,1.27-2.98,1.27-4.68s-.47-3.07-1.42-4.03c-.94-.96-2.23-1.44-3.86-1.44-1.98,0-3.47,.42-4.46,1.27-.99,.85-1.73,2.28-2.21,4.3l-5.23-.72c.29-1.28,.7-2.5,1.25-3.67,.54-1.17,1.28-2.19,2.21-3.07,.93-.88,2.09-1.58,3.48-2.11,1.39-.53,3.08-.79,5.06-.79,3.58,0,6.3,.9,8.14,2.71,1.84,1.81,2.76,4.22,2.76,7.22,0,1.89-.34,3.58-1.03,5.06-.69,1.49-1.66,2.95-2.93,4.39-1.26,1.44-2.78,2.94-4.56,4.49-1.78,1.55-3.77,3.34-5.98,5.35h14.93l-.67,4.85h-22.32v-4.27Z"/><path class="cls-1" d="M115.95,29.33v6.67h-5.81v-6.67h5.81Z"/><path class="cls-1" d="M131.55,34.94c-1.92,0-3.64-.34-5.16-1.01-1.52-.67-2.81-1.72-3.86-3.14-1.06-1.42-1.86-3.24-2.42-5.45-.56-2.21-.84-4.83-.84-7.87,0-5.89,1.07-10.27,3.22-13.15,2.14-2.88,5.23-4.32,9.26-4.32s6.89,1.42,9.05,4.25,3.24,7.24,3.24,13.22-1.1,10.47-3.29,13.27c-2.19,2.8-5.26,4.2-9.19,4.2Zm.05-4.8c1.25,0,2.3-.3,3.14-.89,.85-.59,1.54-1.43,2.06-2.52,.53-1.09,.91-2.42,1.15-3.98,.24-1.57,.36-3.33,.36-5.28s-.12-3.66-.36-5.23c-.24-1.57-.62-2.9-1.15-4.01-.53-1.1-1.22-1.95-2.06-2.54-.85-.59-1.9-.89-3.14-.89s-2.3,.3-3.14,.91c-.85,.61-1.53,1.46-2.04,2.57-.51,1.1-.88,2.43-1.1,3.98-.22,1.55-.34,3.29-.34,5.21,0,4.13,.5,7.27,1.51,9.43,1.01,2.16,2.71,3.24,5.11,3.24Z"/><path class="cls-1" d="M152.71,26.26c.29,1.44,.82,2.49,1.61,3.14,.78,.66,2.07,.98,3.86,.98,2.37,0,4.08-.93,5.14-2.78,1.06-1.86,1.6-4.83,1.63-8.93-1.98,2.5-4.66,3.74-8.02,3.74s-5.98-1-7.66-3c-1.68-2-2.52-4.68-2.52-8.04,0-1.66,.27-3.19,.82-4.58,.54-1.39,1.33-2.59,2.35-3.6,1.02-1.01,2.26-1.79,3.7-2.35,1.44-.56,3.07-.84,4.9-.84,2.4,0,4.36,.5,5.88,1.49,1.52,.99,2.72,2.26,3.6,3.79,.88,1.54,1.49,3.23,1.82,5.09,.34,1.86,.5,3.65,.5,5.38,0,3.49-.26,6.45-.77,8.88-.51,2.43-1.27,4.42-2.28,5.95s-2.26,2.65-3.77,3.34c-1.5,.69-3.23,1.03-5.18,1.03-3.39,0-5.98-.7-7.78-2.09-1.79-1.39-2.82-3.59-3.07-6.6h5.23Zm5.47-8.26c.9,0,1.73-.13,2.5-.38,.77-.26,1.44-.66,2.02-1.22,.58-.56,1.02-1.26,1.34-2.11,.32-.85,.48-1.85,.48-3-.03-.93-.18-1.81-.46-2.64-.27-.83-.66-1.56-1.15-2.18s-1.11-1.11-1.85-1.46c-.74-.35-1.58-.53-2.54-.53-1.92,0-3.46,.58-4.61,1.75-1.15,1.17-1.73,2.86-1.73,5.06,0,.93,.1,1.8,.31,2.62,.21,.82,.54,1.53,1.01,2.14,.46,.61,1.08,1.09,1.85,1.44,.77,.35,1.71,.53,2.83,.53Z"/><path class="cls-1" d="M180.41,29.33v6.67h-5.81v-6.67h5.81Z"/><path class="cls-1" d="M196.01,34.94c-1.92,0-3.64-.34-5.16-1.01-1.52-.67-2.81-1.72-3.86-3.14-1.06-1.42-1.86-3.24-2.42-5.45-.56-2.21-.84-4.83-.84-7.87,0-5.89,1.07-10.27,3.22-13.15,2.14-2.88,5.23-4.32,9.26-4.32s6.89,1.42,9.05,4.25,3.24,7.24,3.24,13.22-1.1,10.47-3.29,13.27c-2.19,2.8-5.26,4.2-9.19,4.2Zm.05-4.8c1.25,0,2.3-.3,3.14-.89,.85-.59,1.54-1.43,2.06-2.52,.53-1.09,.91-2.42,1.15-3.98,.24-1.57,.36-3.33,.36-5.28s-.12-3.66-.36-5.23c-.24-1.57-.62-2.9-1.15-4.01-.53-1.1-1.22-1.95-2.06-2.54-.85-.59-1.9-.89-3.14-.89s-2.3,.3-3.14,.91c-.85,.61-1.53,1.46-2.04,2.57-.51,1.1-.88,2.43-1.1,3.98-.22,1.55-.34,3.29-.34,5.21,0,4.13,.5,7.27,1.51,9.43,1.01,2.16,2.71,3.24,5.11,3.24Z"/><path class="cls-1" d="M211.85,29.81c2.43-2.14,4.68-4.06,6.74-5.74,2.06-1.68,3.84-3.26,5.33-4.75s2.66-2.94,3.5-4.37c.85-1.42,1.27-2.98,1.27-4.68s-.47-3.07-1.42-4.03c-.94-.96-2.23-1.44-3.86-1.44-1.98,0-3.47,.42-4.46,1.27-.99,.85-1.73,2.28-2.21,4.3l-5.23-.72c.29-1.28,.7-2.5,1.25-3.67,.54-1.17,1.28-2.19,2.21-3.07,.93-.88,2.09-1.58,3.48-2.11,1.39-.53,3.08-.79,5.06-.79,3.58,0,6.3,.9,8.14,2.71,1.84,1.81,2.76,4.22,2.76,7.22,0,1.89-.34,3.58-1.03,5.06-.69,1.49-1.66,2.95-2.93,4.39-1.26,1.44-2.78,2.94-4.56,4.49-1.78,1.55-3.77,3.34-5.98,5.35h14.93l-.67,4.85h-22.32v-4.27Z"/></g><path class="cls-1" d="M243.74,15.75h48v4.32h-48v-4.32Z"/><g><path class="cls-1" d="M301.06,29.81c2.43-2.14,4.68-4.06,6.74-5.74,2.06-1.68,3.84-3.26,5.33-4.75s2.66-2.94,3.5-4.37c.85-1.42,1.27-2.98,1.27-4.68s-.47-3.07-1.42-4.03c-.94-.96-2.23-1.44-3.86-1.44-1.98,0-3.47,.42-4.46,1.27-.99,.85-1.73,2.28-2.21,4.3l-5.23-.72c.29-1.28,.7-2.5,1.25-3.67,.54-1.17,1.28-2.19,2.21-3.07,.93-.88,2.09-1.58,3.48-2.11,1.39-.53,3.08-.79,5.06-.79,3.58,0,6.3,.9,8.14,2.71,1.84,1.81,2.76,4.22,2.76,7.22,0,1.89-.34,3.58-1.03,5.06-.69,1.49-1.66,2.95-2.93,4.39-1.26,1.44-2.78,2.94-4.56,4.49-1.78,1.55-3.77,3.34-5.98,5.35h14.93l-.67,4.85h-22.32v-4.27Z"/><path class="cls-1" d="M339.7,34.94c-1.92,0-3.64-.34-5.16-1.01-1.52-.67-2.81-1.72-3.86-3.14-1.06-1.42-1.86-3.24-2.42-5.45-.56-2.21-.84-4.83-.84-7.87,0-5.89,1.07-10.27,3.22-13.15,2.14-2.88,5.23-4.32,9.26-4.32s6.89,1.42,9.05,4.25,3.24,7.24,3.24,13.22-1.1,10.47-3.29,13.27c-2.19,2.8-5.26,4.2-9.19,4.2Zm.05-4.8c1.25,0,2.3-.3,3.14-.89,.85-.59,1.54-1.43,2.06-2.52,.53-1.09,.91-2.42,1.15-3.98,.24-1.57,.36-3.33,.36-5.28s-.12-3.66-.36-5.23c-.24-1.57-.62-2.9-1.15-4.01-.53-1.1-1.22-1.95-2.06-2.54-.85-.59-1.9-.89-3.14-.89s-2.3,.3-3.14,.91c-.85,.61-1.53,1.46-2.04,2.57-.51,1.1-.88,2.43-1.1,3.98-.22,1.55-.34,3.29-.34,5.21,0,4.13,.5,7.27,1.51,9.43,1.01,2.16,2.71,3.24,5.11,3.24Z"/><path class="cls-1" d="M355.54,29.81c2.43-2.14,4.68-4.06,6.74-5.74,2.06-1.68,3.84-3.26,5.33-4.75s2.66-2.94,3.5-4.37c.85-1.42,1.27-2.98,1.27-4.68s-.47-3.07-1.42-4.03c-.94-.96-2.23-1.44-3.86-1.44-1.98,0-3.47,.42-4.46,1.27-.99,.85-1.73,2.28-2.21,4.3l-5.23-.72c.29-1.28,.7-2.5,1.25-3.67,.54-1.17,1.28-2.19,2.21-3.07,.93-.88,2.09-1.58,3.48-2.11,1.39-.53,3.08-.79,5.06-.79,3.58,0,6.3,.9,8.14,2.71,1.84,1.81,2.76,4.22,2.76,7.22,0,1.89-.34,3.58-1.03,5.06-.69,1.49-1.66,2.95-2.93,4.39-1.26,1.44-2.78,2.94-4.56,4.49-1.78,1.55-3.77,3.34-5.98,5.35h14.93l-.67,4.85h-22.32v-4.27Z"/><path class="cls-1" d="M382.75,29.81c2.43-2.14,4.68-4.06,6.74-5.74,2.06-1.68,3.84-3.26,5.33-4.75s2.66-2.94,3.5-4.37c.85-1.42,1.27-2.98,1.27-4.68s-.47-3.07-1.42-4.03c-.94-.96-2.23-1.44-3.86-1.44-1.98,0-3.47,.42-4.46,1.27-.99,.85-1.73,2.28-2.21,4.3l-5.23-.72c.29-1.28,.7-2.5,1.25-3.67,.54-1.17,1.28-2.19,2.21-3.07,.93-.88,2.09-1.58,3.48-2.11,1.39-.53,3.08-.79,5.06-.79,3.58,0,6.3,.9,8.14,2.71,1.84,1.81,2.76,4.22,2.76,7.22,0,1.89-.34,3.58-1.03,5.06-.69,1.49-1.66,2.95-2.93,4.39-1.26,1.44-2.78,2.94-4.56,4.49-1.78,1.55-3.77,3.34-5.98,5.35h14.93l-.67,4.85h-22.32v-4.27Z"/><path class="cls-1" d="M416.73,29.33v6.67h-5.81v-6.67h5.81Z"/><path class="cls-1" d="M420.96,11.38l-2.4-4.03,10.27-6.43h4.8V34.08h-5.57V7.1l-7.1,4.27Z"/><path class="cls-1" d="M441.74,11.38l-2.4-4.03,10.27-6.43h4.8V34.08h-5.57V7.1l-7.1,4.27Z"/><path class="cls-1" d="M467.18,29.33v6.67h-5.81v-6.67h5.81Z"/><path class="cls-1" d="M473.23,29.81c2.43-2.14,4.68-4.06,6.74-5.74,2.06-1.68,3.84-3.26,5.33-4.75s2.66-2.94,3.5-4.37c.85-1.42,1.27-2.98,1.27-4.68s-.47-3.07-1.42-4.03c-.94-.96-2.23-1.44-3.86-1.44-1.98,0-3.47,.42-4.46,1.27-.99,.85-1.73,2.28-2.21,4.3l-5.23-.72c.29-1.28,.7-2.5,1.25-3.67,.54-1.17,1.28-2.19,2.21-3.07,.93-.88,2.09-1.58,3.48-2.11,1.39-.53,3.08-.79,5.06-.79,3.58,0,6.3,.9,8.14,2.71,1.84,1.81,2.76,4.22,2.76,7.22,0,1.89-.34,3.58-1.03,5.06-.69,1.49-1.66,2.95-2.93,4.39-1.26,1.44-2.78,2.94-4.56,4.49-1.78,1.55-3.77,3.34-5.98,5.35h14.93l-.67,4.85h-22.32v-4.27Z"/><path class="cls-1" d="M505.29,34.08c3.04-10.14,6.85-19.6,11.42-28.37h-16.85V.91h22.99V5.28c-2.53,4.64-4.73,9.3-6.6,13.99-1.87,4.69-3.5,9.62-4.87,14.81h-6.1Z"/></g><g><path class="cls-1" d="M28.61,148.22c-2.53,.45-5.52,.79-8.98,1.03-3.46,.24-7.26,.38-11.42,.41l-5.62,.05v-18.38h15.41v-8.35H2.4v-4.22H23.23v16.75H7.82v9.84c1.34,0,2.88-.02,4.61-.07,1.73-.05,3.5-.12,5.33-.22,1.82-.1,3.62-.23,5.4-.41,1.78-.18,3.4-.41,4.87-.7l.58,4.27Zm3.6,12.05v-45.5h5.23v45.5h-5.23Z"/><path class="cls-1" d="M48.24,159.7v-15.46h12.62v-4.51h-17.86v-4.22h41.09v4.22h-18v4.51h12.77v15.46h-30.62Zm31.1-35.76c0,2.59-1.36,4.68-4.08,6.26-2.72,1.58-6.61,2.38-11.66,2.38-2.53,0-4.77-.21-6.72-.62-1.95-.42-3.6-1.01-4.94-1.78-1.34-.77-2.37-1.68-3.07-2.74-.7-1.06-1.06-2.22-1.06-3.5,0-2.59,1.36-4.68,4.08-6.26,2.72-1.58,6.61-2.38,11.66-2.38,2.53,0,4.77,.21,6.72,.62,1.95,.42,3.6,1.01,4.94,1.78,1.34,.77,2.37,1.68,3.07,2.74,.7,1.06,1.06,2.22,1.06,3.5Zm-5.38,0c0-1.44-.91-2.56-2.74-3.36-1.82-.8-4.38-1.2-7.68-1.2s-5.81,.4-7.63,1.2c-1.82,.8-2.74,1.92-2.74,3.36s.91,2.56,2.74,3.36c1.82,.8,4.37,1.2,7.63,1.2s5.74-.4,7.61-1.2,2.81-1.92,2.81-3.36Zm-.29,24.34h-20.21v7.25h20.21v-7.25Z"/><path class="cls-1" d="M109.63,148.56h-21.36v-29.38h21.36v29.38Zm-5.28-25.2h-10.85v20.98h10.85v-20.98Zm13.87,36.91v-45.5h5.23v45.5h-5.23Z"/><path class="cls-1" d="M134.3,159.98v-11.14h25.15v-3.17h-25.34v-4.13h12.77v-3.79h-17.86v-4.22h41.09v4.22h-18v3.79h12.58v11.09h-25.15v3.22h26.83v4.13h-32.06Zm31.63-28.37c-1.63-.29-3.3-.74-4.99-1.37-1.7-.62-3.29-1.37-4.78-2.23-1.49-.86-2.81-1.83-3.96-2.9-1.15-1.07-2.02-2.2-2.59-3.38-.54,1.22-1.37,2.36-2.47,3.43-1.1,1.07-2.39,2.03-3.86,2.88-1.47,.85-3.06,1.57-4.78,2.16-1.71,.59-3.45,1.03-5.21,1.32l-2.26-4.03c1.92-.19,3.82-.6,5.71-1.22,1.89-.62,3.58-1.43,5.09-2.42,1.5-.99,2.73-2.16,3.67-3.5,.94-1.34,1.42-2.83,1.42-4.46v-1.06h5.42v1.06c0,1.63,.53,3.14,1.58,4.51,1.06,1.38,2.38,2.58,3.96,3.6,1.58,1.02,3.3,1.85,5.16,2.47,1.86,.62,3.58,.98,5.18,1.08l-2.3,4.08Z"/><path class="cls-1" d="M200.26,140.83c-4.35,.58-8.98,.98-13.87,1.22s-9.82,.39-14.78,.46l-.77-4.32c1.34,0,2.83,0,4.46,.02,1.63,.02,3.28,0,4.94-.07v-9.5h5.18v9.31h.1c1.15-.03,2.39-.09,3.72-.17,1.33-.08,2.64-.17,3.94-.26,1.3-.1,2.53-.2,3.7-.31,1.17-.11,2.15-.22,2.95-.31l.43,3.94Zm-3.41-22.75c-.03,3.46-.13,6.52-.29,9.19-.16,2.67-.51,4.97-1.06,6.89l-4.99-.72c.16-.7,.31-1.5,.46-2.38,.14-.88,.26-1.8,.36-2.76s.16-1.95,.19-2.98c.03-1.02,.05-2.02,.05-2.98h-17.57v-4.27h22.85Zm-18.58,41.04v-13.34h5.23v9.12h25.63v4.22h-30.86Zm29.47-26.16v15.74h-5.23v-33.94h5.23v13.87h6.53v4.32h-6.53Z"/><path class="cls-1" d="M238.61,119.81v29.23h16.99l-.72,5.04h-22.08v-34.27h5.81Z"/><path class="cls-1" d="M280.08,146.69c-.45,2.59-1.55,4.6-3.31,6.02-1.76,1.42-4.29,2.14-7.58,2.14-4,0-7.02-1.14-9.07-3.41-2.05-2.27-3.07-5.5-3.07-9.7,0-2.14,.3-4.05,.89-5.71,.59-1.66,1.42-3.06,2.5-4.2,1.07-1.14,2.35-2,3.84-2.59,1.49-.59,3.13-.89,4.92-.89,1.92,0,3.58,.3,4.99,.89,1.41,.59,2.58,1.42,3.5,2.5,.93,1.07,1.62,2.35,2.06,3.84,.45,1.49,.67,3.14,.67,4.97v2.4h-17.9c.06,2.3,.64,4.15,1.73,5.54,1.09,1.39,2.74,2.09,4.94,2.09,1.73,0,3.02-.34,3.89-1.01,.86-.67,1.44-1.63,1.73-2.88h5.28Zm-4.99-7.54c0-2.05-.48-3.66-1.44-4.85-.96-1.18-2.5-1.78-4.61-1.78s-3.55,.6-4.61,1.8-1.66,2.81-1.82,4.82h12.48Z"/><path class="cls-1" d="M306.77,146.69c-.45,2.59-1.55,4.6-3.31,6.02-1.76,1.42-4.29,2.14-7.58,2.14-4,0-7.02-1.14-9.07-3.41-2.05-2.27-3.07-5.5-3.07-9.7,0-2.14,.3-4.05,.89-5.71,.59-1.66,1.42-3.06,2.5-4.2,1.07-1.14,2.35-2,3.84-2.59,1.49-.59,3.13-.89,4.92-.89,1.92,0,3.58,.3,4.99,.89,1.41,.59,2.58,1.42,3.5,2.5,.93,1.07,1.62,2.35,2.06,3.84,.45,1.49,.67,3.14,.67,4.97v2.4h-17.9c.06,2.3,.64,4.15,1.73,5.54,1.09,1.39,2.74,2.09,4.94,2.09,1.73,0,3.02-.34,3.89-1.01,.86-.67,1.44-1.63,1.73-2.88h5.28Zm-4.99-7.54c0-2.05-.48-3.66-1.44-4.85-.96-1.18-2.5-1.78-4.61-1.78s-3.55,.6-4.61,1.8c-1.06,1.2-1.66,2.81-1.82,4.82h12.48Z"/><path class="cls-1" d="M316.51,129.12v15.7c0,2.08,.34,3.5,1.03,4.27,.69,.77,1.74,1.15,3.14,1.15,.77,0,1.54-.14,2.33-.43,.78-.29,1.48-.7,2.09-1.25,.61-.54,1.1-1.2,1.49-1.97,.38-.77,.58-1.63,.58-2.59v-14.88h5.47v24.96h-5.33v-3.65c-1.15,1.54-2.4,2.66-3.74,3.36-1.34,.7-2.78,1.06-4.32,1.06-2.91,0-5-.75-6.26-2.26-1.26-1.5-1.9-3.81-1.9-6.91v-16.56h5.42Z"/><path class="cls-1" d="M342.96,129.12v3.6c1.73-2.4,3.78-3.79,6.14-4.18,.61-.1,1.25-.14,1.92-.14,1.73,.06,3.11,.49,4.15,1.27,1.04,.78,1.8,1.85,2.28,3.19,2.21-3.01,4.93-4.51,8.16-4.51,2.69,0,4.65,.73,5.88,2.18,1.23,1.46,1.85,3.82,1.85,7.08v16.46h-5.47v-14.98c0-1.22-.08-2.22-.24-3.02-.16-.8-.39-1.43-.7-1.9-.3-.46-.7-.78-1.18-.96-.48-.18-1.02-.26-1.63-.26-.96,0-1.81,.18-2.54,.53-.74,.35-1.35,.82-1.85,1.39-.5,.58-.87,1.22-1.13,1.94-.26,.72-.38,1.46-.38,2.23v15.02h-5.47v-15.5c0-2.14-.33-3.62-.98-4.42-.66-.8-1.56-1.2-2.71-1.2-.48,0-1.06,.1-1.73,.31-.67,.21-1.32,.55-1.94,1.03s-1.16,1.12-1.61,1.92c-.45,.8-.67,1.78-.67,2.93v14.93h-5.42v-24.96h5.28Z"/><path class="cls-1" d="M386.54,119.81h7.06l9.74,27.26,10.03-27.26h6.82v34.27h-5.33v-24.91l-9.41,24.91h-4.61l-9.07-24.86v24.86h-5.23v-34.27Z"/><path class="cls-1" d="M431.04,129.12v15.7c0,2.08,.34,3.5,1.03,4.27,.69,.77,1.74,1.15,3.14,1.15,.77,0,1.54-.14,2.33-.43,.78-.29,1.48-.7,2.09-1.25,.61-.54,1.1-1.2,1.49-1.97,.38-.77,.58-1.63,.58-2.59v-14.88h5.47v24.96h-5.33v-3.65c-1.15,1.54-2.4,2.66-3.74,3.36-1.34,.7-2.78,1.06-4.32,1.06-2.91,0-5-.75-6.26-2.26-1.26-1.5-1.9-3.81-1.9-6.91v-16.56h5.42Z"/><path class="cls-1" d="M455.95,146.45c.1,.83,.32,1.51,.67,2.04,.35,.53,.79,.95,1.32,1.27,.53,.32,1.14,.54,1.85,.65,.7,.11,1.46,.17,2.26,.17,1.82,0,3.14-.27,3.94-.82,.8-.54,1.2-1.34,1.2-2.4,0-.83-.25-1.54-.74-2.11-.5-.58-1.51-.99-3.05-1.25-1.98-.35-3.73-.69-5.23-1.01-1.5-.32-2.77-.76-3.79-1.32-1.02-.56-1.79-1.28-2.3-2.16-.51-.88-.77-2.07-.77-3.58,0-1.15,.26-2.2,.77-3.14,.51-.94,1.22-1.74,2.14-2.4,.91-.66,2-1.16,3.26-1.51,1.26-.35,2.65-.53,4.15-.53,1.92,0,3.52,.19,4.8,.58,1.28,.38,2.32,.91,3.12,1.58,.8,.67,1.41,1.44,1.82,2.3,.42,.86,.74,1.78,.96,2.74l-4.9,.67c-.38-1.25-.97-2.18-1.75-2.78-.78-.61-2.09-.91-3.91-.91-1.06,0-1.92,.1-2.59,.29-.67,.19-1.21,.43-1.61,.72-.4,.29-.67,.62-.82,.98-.14,.37-.22,.71-.22,1.03,0,.54,.06,.99,.19,1.34,.13,.35,.36,.64,.7,.86,.34,.22,.79,.42,1.37,.58,.58,.16,1.3,.32,2.16,.48l3.12,.53c1.66,.29,3.05,.66,4.15,1.13,1.1,.46,1.98,1.02,2.62,1.66,.64,.64,1.1,1.38,1.37,2.23,.27,.85,.41,1.82,.41,2.9,0,2.3-.86,4.14-2.57,5.52-1.71,1.38-4.34,2.06-7.9,2.06-1.44,0-2.82-.14-4.15-.41-1.33-.27-2.52-.73-3.58-1.37-1.06-.64-1.91-1.5-2.57-2.57-.66-1.07-1.03-2.42-1.13-4.06h5.23Z"/><path class="cls-1" d="M498.14,146.69c-.45,2.59-1.55,4.6-3.31,6.02-1.76,1.42-4.29,2.14-7.58,2.14-4,0-7.02-1.14-9.07-3.41-2.05-2.27-3.07-5.5-3.07-9.7,0-2.14,.3-4.05,.89-5.71,.59-1.66,1.42-3.06,2.5-4.2,1.07-1.14,2.35-2,3.84-2.59,1.49-.59,3.13-.89,4.92-.89,1.92,0,3.58,.3,4.99,.89,1.41,.59,2.58,1.42,3.5,2.5,.93,1.07,1.62,2.35,2.06,3.84,.45,1.49,.67,3.14,.67,4.97v2.4h-17.9c.06,2.3,.64,4.15,1.73,5.54,1.09,1.39,2.74,2.09,4.94,2.09,1.73,0,3.02-.34,3.89-1.01,.86-.67,1.44-1.63,1.73-2.88h5.28Zm-4.99-7.54c0-2.05-.48-3.66-1.44-4.85-.96-1.18-2.5-1.78-4.61-1.78s-3.55,.6-4.61,1.8-1.66,2.81-1.82,4.82h12.48Z"/><path class="cls-1" d="M507.88,129.12v15.7c0,2.08,.34,3.5,1.03,4.27,.69,.77,1.74,1.15,3.14,1.15,.77,0,1.54-.14,2.33-.43,.78-.29,1.48-.7,2.09-1.25,.61-.54,1.1-1.2,1.49-1.97,.38-.77,.58-1.63,.58-2.59v-14.88h5.47v24.96h-5.33v-3.65c-1.15,1.54-2.4,2.66-3.74,3.36-1.34,.7-2.78,1.06-4.32,1.06-2.91,0-5-.75-6.26-2.26-1.26-1.5-1.9-3.81-1.9-6.91v-16.56h5.42Z"/><path class="cls-1" d="M534.33,129.12v3.6c1.73-2.4,3.78-3.79,6.14-4.18,.61-.1,1.25-.14,1.92-.14,1.73,.06,3.11,.49,4.15,1.27,1.04,.78,1.8,1.85,2.28,3.19,2.21-3.01,4.93-4.51,8.16-4.51,2.69,0,4.65,.73,5.88,2.18,1.23,1.46,1.85,3.82,1.85,7.08v16.46h-5.47v-14.98c0-1.22-.08-2.22-.24-3.02-.16-.8-.39-1.43-.7-1.9-.3-.46-.7-.78-1.18-.96-.48-.18-1.02-.26-1.63-.26-.96,0-1.81,.18-2.54,.53-.74,.35-1.35,.82-1.85,1.39-.5,.58-.87,1.22-1.13,1.94-.26,.72-.38,1.46-.38,2.23v15.02h-5.47v-15.5c0-2.14-.33-3.62-.98-4.42-.66-.8-1.56-1.2-2.71-1.2-.48,0-1.06,.1-1.73,.31-.67,.21-1.32,.55-1.94,1.03s-1.16,1.12-1.61,1.92c-.45,.8-.67,1.78-.67,2.93v14.93h-5.42v-24.96h5.28Z"/><path class="cls-1" d="M588.81,154.85c-3.94,0-6.97-1.14-9.1-3.43-2.13-2.29-3.19-5.56-3.19-9.82,0-1.98,.28-3.79,.84-5.42,.56-1.63,1.37-3.02,2.42-4.18,1.06-1.15,2.35-2.05,3.89-2.69,1.54-.64,3.28-.96,5.23-.96s3.74,.33,5.28,.98c1.54,.66,2.82,1.56,3.86,2.71,1.04,1.15,1.82,2.54,2.35,4.15,.53,1.62,.79,3.38,.79,5.3,0,2.18-.3,4.09-.91,5.74-.61,1.65-1.46,3.04-2.57,4.18-1.1,1.14-2.41,1.99-3.91,2.57-1.5,.58-3.17,.86-4.99,.86Zm.05-4.42c2.3,0,3.99-.78,5.06-2.35,1.07-1.57,1.61-3.74,1.61-6.53s-.54-4.86-1.61-6.43c-1.07-1.57-2.76-2.35-5.06-2.35s-3.99,.78-5.06,2.35c-1.07,1.57-1.61,3.71-1.61,6.43s.52,4.88,1.56,6.48c1.04,1.6,2.74,2.4,5.11,2.4Z"/><path class="cls-1" d="M607,133.44h-3.89v-4.32h3.89v-1.44c0-2.62,.71-4.66,2.14-6.1,1.42-1.44,3.43-2.16,6.02-2.16,1.63,0,3.2,.22,4.7,.67l-.82,4.08c-.96-.29-1.92-.43-2.88-.43-1.18,0-2.1,.32-2.74,.96s-.96,1.58-.96,2.83v1.58h6.05v4.32h-6.05v20.64h-5.47v-20.64Z"/><path class="cls-1" d="M639.69,119.81h5.76l13.06,34.27h-6.19l-3.22-8.74h-13.3l-3.17,8.74h-6l13.06-34.27Zm7.82,20.69l-5.09-14.11-5.04,14.11h10.13Z"/><path class="cls-1" d="M666.28,129.12v3.7c.86-1.34,1.9-2.36,3.12-3.05,1.22-.69,2.51-1.03,3.89-1.03,.54,0,1,.02,1.37,.05,.37,.03,.73,.08,1.08,.14l-.62,4.99c-.35-.1-.74-.16-1.15-.19-.42-.03-.85-.05-1.3-.05-1.02,0-1.92,.17-2.69,.5-.77,.34-1.42,.78-1.94,1.32-.53,.54-.93,1.16-1.2,1.85-.27,.69-.41,1.38-.41,2.09v14.64h-5.42v-24.96h5.28Z"/><path class="cls-1" d="M677.23,133.44v-4.32h3.94v-6.72h5.42v6.72h6.19v4.32h-6.19v13.06c0,1.28,.26,2.21,.79,2.78,.53,.58,1.3,.86,2.33,.86,.54,0,1.06-.03,1.56-.1,.5-.06,.98-.18,1.46-.34l.82,4.08c-1.5,.51-3.17,.77-4.99,.77-2.75,0-4.67-.71-5.76-2.14-1.09-1.42-1.63-3.56-1.63-6.41v-12.58h-3.94Z"/></g><g><path class="cls-1" d="M0,214.85v-4.22H17.86v-5.09c-3.55-.32-6.36-1.18-8.42-2.59-2.06-1.41-3.1-3.22-3.1-5.42,0-1.25,.34-2.38,1.01-3.38,.67-1.01,1.63-1.87,2.88-2.59,1.25-.72,2.74-1.27,4.49-1.66,1.74-.38,3.7-.58,5.88-.58s4.1,.19,5.86,.58c1.76,.38,3.26,.94,4.49,1.66,1.23,.72,2.18,1.58,2.86,2.59,.67,1.01,1.01,2.14,1.01,3.38,0,2.24-1.05,4.07-3.14,5.5-2.1,1.42-4.95,2.26-8.57,2.52v5.09h18v4.22H0Zm2.54-27.41v-4.22H38.54v4.22H2.54Zm26.98,10.08c0-.7-.24-1.32-.72-1.85-.48-.53-1.13-.96-1.94-1.3s-1.77-.59-2.86-.77c-1.09-.18-2.22-.26-3.41-.26s-2.32,.09-3.41,.26c-1.09,.18-2.04,.43-2.86,.77-.82,.34-1.47,.77-1.97,1.3-.5,.53-.74,1.14-.74,1.85s.25,1.31,.74,1.82c.5,.51,1.15,.94,1.97,1.3,.82,.35,1.77,.62,2.86,.79,1.09,.18,2.22,.26,3.41,.26s2.32-.09,3.41-.26c1.09-.18,2.04-.44,2.86-.79,.82-.35,1.46-.78,1.94-1.3,.48-.51,.72-1.12,.72-1.82Zm-17.09-21.36H28.61v4.18H12.43v-4.18Z"/><path class="cls-1" d="M66.62,188.11c0,1.6-.3,3.05-.91,4.34-.61,1.3-1.44,2.4-2.5,3.31-1.06,.91-2.29,1.62-3.7,2.11-1.41,.5-2.93,.74-4.56,.74s-3.1-.25-4.51-.74c-1.41-.5-2.64-1.2-3.7-2.11-1.06-.91-1.9-2.02-2.52-3.31-.62-1.3-.94-2.74-.94-4.34s.3-3.02,.91-4.34c.61-1.33,1.44-2.47,2.5-3.43,1.06-.96,2.3-1.71,3.72-2.26,1.42-.54,2.94-.82,4.54-.82s3.11,.26,4.54,.79c1.42,.53,2.66,1.27,3.72,2.23,1.06,.96,1.89,2.1,2.5,3.43,.61,1.33,.91,2.79,.91,4.39Zm-5.14-.05c0-1.82-.58-3.34-1.73-4.56-1.15-1.22-2.75-1.82-4.8-1.82-.99,0-1.89,.16-2.69,.48-.8,.32-1.49,.77-2.06,1.34s-1.02,1.26-1.32,2.04c-.3,.78-.46,1.62-.46,2.52,0,1.92,.6,3.48,1.8,4.68,1.2,1.2,2.78,1.8,4.73,1.8,.96,0,1.84-.16,2.64-.48,.8-.32,1.49-.77,2.06-1.34,.58-.58,1.02-1.26,1.34-2.06,.32-.8,.48-1.66,.48-2.59Zm-12.24,31.63v-17.09h29.09v17.09h-29.09Zm23.9-12.96h-18.67v8.78h18.67v-8.78Zm5.18-16.8v10.27h-5.23v-25.44h5.23v10.8h6.67v4.37h-6.67Z"/><path class="cls-1" d="M109.63,208.56h-21.36v-29.38h21.36v29.38Zm-5.28-25.2h-10.85v20.98h10.85v-20.98Zm13.87,36.91v-45.5h5.23v45.5h-5.23Z"/><path class="cls-1" d="M134.3,219.98v-11.14h25.15v-3.17h-25.34v-4.13h12.77v-3.79h-17.86v-4.22h41.09v4.22h-18v3.79h12.58v11.09h-25.15v3.22h26.83v4.13h-32.06Zm31.63-28.37c-1.63-.29-3.3-.74-4.99-1.37-1.7-.62-3.29-1.37-4.78-2.23-1.49-.86-2.81-1.83-3.96-2.9-1.15-1.07-2.02-2.2-2.59-3.38-.54,1.22-1.37,2.36-2.47,3.43-1.1,1.07-2.39,2.03-3.86,2.88-1.47,.85-3.06,1.57-4.78,2.16-1.71,.59-3.45,1.03-5.21,1.32l-2.26-4.03c1.92-.19,3.82-.6,5.71-1.22,1.89-.62,3.58-1.43,5.09-2.42,1.5-.99,2.73-2.16,3.67-3.5,.94-1.34,1.42-2.83,1.42-4.46v-1.06h5.42v1.06c0,1.63,.53,3.14,1.58,4.51,1.06,1.38,2.38,2.58,3.96,3.6,1.58,1.02,3.3,1.85,5.16,2.47,1.86,.62,3.58,.98,5.18,1.08l-2.3,4.08Z"/><path class="cls-1" d="M200.26,200.83c-4.35,.58-8.98,.98-13.87,1.22s-9.82,.39-14.78,.46l-.77-4.32c1.34,0,2.83,0,4.46,.02,1.63,.02,3.28,0,4.94-.07v-9.5h5.18v9.31h.1c1.15-.03,2.39-.09,3.72-.17,1.33-.08,2.64-.17,3.94-.26,1.3-.1,2.53-.2,3.7-.31,1.17-.11,2.15-.22,2.95-.31l.43,3.94Zm-3.41-22.75c-.03,3.46-.13,6.52-.29,9.19-.16,2.67-.51,4.97-1.06,6.89l-4.99-.72c.16-.7,.31-1.5,.46-2.38,.14-.88,.26-1.8,.36-2.76s.16-1.95,.19-2.98c.03-1.02,.05-2.02,.05-2.98h-17.57v-4.27h22.85Zm-18.58,41.04v-13.34h5.23v9.12h25.63v4.22h-30.86Zm29.47-26.16v15.74h-5.23v-33.94h5.23v13.87h6.53v4.32h-6.53Z"/><path class="cls-1" d="M232.8,179.81h5.81v13.87h15.41v-13.87h5.81v34.27h-5.81v-15.02h-15.41v15.02h-5.81v-34.27Z"/><path class="cls-1" d="M276.86,214.85c-3.94,0-6.97-1.14-9.1-3.43-2.13-2.29-3.19-5.56-3.19-9.82,0-1.98,.28-3.79,.84-5.42,.56-1.63,1.37-3.02,2.42-4.18,1.06-1.15,2.35-2.05,3.89-2.69,1.54-.64,3.28-.96,5.23-.96s3.74,.33,5.28,.98c1.54,.66,2.82,1.56,3.86,2.71,1.04,1.15,1.82,2.54,2.35,4.15,.53,1.62,.79,3.38,.79,5.3,0,2.18-.3,4.09-.91,5.74-.61,1.65-1.46,3.04-2.57,4.18-1.1,1.14-2.41,1.99-3.91,2.57-1.5,.58-3.17,.86-4.99,.86Zm.05-4.42c2.3,0,3.99-.78,5.06-2.35,1.07-1.57,1.61-3.74,1.61-6.53s-.54-4.86-1.61-6.43c-1.07-1.57-2.76-2.35-5.06-2.35s-3.99,.78-5.06,2.35c-1.07,1.57-1.61,3.71-1.61,6.43s.52,4.88,1.56,6.48c1.04,1.6,2.74,2.4,5.11,2.4Z"/><path class="cls-1" d="M308.64,210.82c-.93,1.12-2.06,2.05-3.41,2.78-1.34,.74-2.98,1.1-4.9,1.1-1.18,0-2.29-.15-3.31-.46-1.02-.3-1.91-.76-2.66-1.37-.75-.61-1.34-1.38-1.78-2.33-.43-.94-.65-2.06-.65-3.34,0-1.73,.38-3.13,1.15-4.2,.77-1.07,1.77-1.91,3-2.52,1.23-.61,2.62-1.03,4.15-1.27,1.54-.24,3.07-.39,4.61-.46l3.7-.19v-1.06c0-1.89-.46-3.19-1.37-3.91-.91-.72-2.1-1.08-3.58-1.08-1.73,0-2.99,.29-3.79,.86-.8,.58-1.33,1.41-1.58,2.5l-4.99-.53c.45-2.43,1.54-4.21,3.29-5.33,1.74-1.12,4.17-1.68,7.27-1.68,1.98,0,3.62,.26,4.92,.77,1.3,.51,2.33,1.22,3.1,2.11,.77,.9,1.3,1.96,1.61,3.19,.3,1.23,.46,2.58,.46,4.06v15.6h-5.23v-3.26Zm-3.6-8.4c-1.63,.1-2.95,.27-3.96,.53-1.01,.26-1.78,.58-2.33,.98-.54,.4-.9,.86-1.08,1.39-.18,.53-.26,1.1-.26,1.7,0,1.09,.34,1.94,1.03,2.54,.69,.61,1.7,.91,3.05,.91,2.4,0,4.18-.6,5.33-1.8s1.73-2.86,1.73-4.97v-1.44l-3.5,.14Z"/><path class="cls-1" d="M324,189.12v3.6c1.73-2.4,3.78-3.79,6.14-4.18,.61-.1,1.25-.14,1.92-.14,1.73,.06,3.11,.49,4.15,1.27,1.04,.78,1.8,1.85,2.28,3.19,2.21-3.01,4.93-4.51,8.16-4.51,2.69,0,4.65,.73,5.88,2.18,1.23,1.46,1.85,3.82,1.85,7.08v16.46h-5.47v-14.98c0-1.22-.08-2.22-.24-3.02-.16-.8-.39-1.43-.7-1.9-.3-.46-.7-.78-1.18-.96-.48-.18-1.02-.26-1.63-.26-.96,0-1.81,.18-2.54,.53-.74,.35-1.35,.82-1.85,1.39-.5,.58-.87,1.22-1.13,1.94-.26,.72-.38,1.46-.38,2.23v15.02h-5.47v-15.5c0-2.14-.33-3.62-.98-4.42-.66-.8-1.56-1.2-2.71-1.2-.48,0-1.06,.1-1.73,.31-.67,.21-1.32,.55-1.94,1.03s-1.16,1.12-1.61,1.92c-.45,.8-.67,1.78-.67,2.93v14.93h-5.42v-24.96h5.28Z"/><path class="cls-1" d="M367.58,179.81h7.06l9.74,27.26,10.03-27.26h6.82v34.27h-5.33v-24.91l-9.41,24.91h-4.61l-9.07-24.86v24.86h-5.23v-34.27Z"/><path class="cls-1" d="M412.08,189.12v15.7c0,2.08,.34,3.5,1.03,4.27,.69,.77,1.74,1.15,3.14,1.15,.77,0,1.54-.14,2.33-.43,.78-.29,1.48-.7,2.09-1.25,.61-.54,1.1-1.2,1.49-1.97,.38-.77,.58-1.63,.58-2.59v-14.88h5.47v24.96h-5.33v-3.65c-1.15,1.54-2.4,2.66-3.74,3.36-1.34,.7-2.78,1.06-4.32,1.06-2.91,0-5-.75-6.26-2.26-1.26-1.5-1.9-3.81-1.9-6.91v-16.56h5.42Z"/><path class="cls-1" d="M436.99,206.45c.1,.83,.32,1.51,.67,2.04,.35,.53,.79,.95,1.32,1.27,.53,.32,1.14,.54,1.85,.65,.7,.11,1.46,.17,2.26,.17,1.82,0,3.14-.27,3.94-.82,.8-.54,1.2-1.34,1.2-2.4,0-.83-.25-1.54-.74-2.11-.5-.58-1.51-.99-3.05-1.25-1.98-.35-3.73-.69-5.23-1.01-1.5-.32-2.77-.76-3.79-1.32-1.02-.56-1.79-1.28-2.3-2.16-.51-.88-.77-2.07-.77-3.58,0-1.15,.26-2.2,.77-3.14,.51-.94,1.22-1.74,2.14-2.4,.91-.66,2-1.16,3.26-1.51,1.26-.35,2.65-.53,4.15-.53,1.92,0,3.52,.19,4.8,.58,1.28,.38,2.32,.91,3.12,1.58,.8,.67,1.41,1.44,1.82,2.3,.42,.86,.74,1.78,.96,2.74l-4.9,.67c-.38-1.25-.97-2.18-1.75-2.78-.78-.61-2.09-.91-3.91-.91-1.06,0-1.92,.1-2.59,.29-.67,.19-1.21,.43-1.61,.72-.4,.29-.67,.62-.82,.98-.14,.37-.22,.71-.22,1.03,0,.54,.06,.99,.19,1.34,.13,.35,.36,.64,.7,.86,.34,.22,.79,.42,1.37,.58,.58,.16,1.3,.32,2.16,.48l3.12,.53c1.66,.29,3.05,.66,4.15,1.13,1.1,.46,1.98,1.02,2.62,1.66,.64,.64,1.1,1.38,1.37,2.23,.27,.85,.41,1.82,.41,2.9,0,2.3-.86,4.14-2.57,5.52-1.71,1.38-4.34,2.06-7.9,2.06-1.44,0-2.82-.14-4.15-.41-1.33-.27-2.52-.73-3.58-1.37-1.06-.64-1.91-1.5-2.57-2.57-.66-1.07-1.03-2.42-1.13-4.06h5.23Z"/><path class="cls-1" d="M479.18,206.69c-.45,2.59-1.55,4.6-3.31,6.02-1.76,1.42-4.29,2.14-7.58,2.14-4,0-7.02-1.14-9.07-3.41-2.05-2.27-3.07-5.5-3.07-9.7,0-2.14,.3-4.05,.89-5.71,.59-1.66,1.42-3.06,2.5-4.2,1.07-1.14,2.35-2,3.84-2.59,1.49-.59,3.13-.89,4.92-.89,1.92,0,3.58,.3,4.99,.89,1.41,.59,2.58,1.42,3.5,2.5,.93,1.07,1.62,2.35,2.06,3.84,.45,1.49,.67,3.14,.67,4.97v2.4h-17.9c.06,2.3,.64,4.15,1.73,5.54,1.09,1.39,2.74,2.09,4.94,2.09,1.73,0,3.02-.34,3.89-1.01,.86-.67,1.44-1.63,1.73-2.88h5.28Zm-4.99-7.54c0-2.05-.48-3.66-1.44-4.85-.96-1.18-2.5-1.78-4.61-1.78s-3.55,.6-4.61,1.8-1.66,2.81-1.82,4.82h12.48Z"/><path class="cls-1" d="M488.93,189.12v15.7c0,2.08,.34,3.5,1.03,4.27,.69,.77,1.74,1.15,3.14,1.15,.77,0,1.54-.14,2.33-.43,.78-.29,1.48-.7,2.09-1.25,.61-.54,1.1-1.2,1.49-1.97,.38-.77,.58-1.63,.58-2.59v-14.88h5.47v24.96h-5.33v-3.65c-1.15,1.54-2.4,2.66-3.74,3.36-1.34,.7-2.78,1.06-4.32,1.06-2.91,0-5-.75-6.26-2.26-1.26-1.5-1.9-3.81-1.9-6.91v-16.56h5.42Z"/><path class="cls-1" d="M515.37,189.12v3.6c1.73-2.4,3.78-3.79,6.14-4.18,.61-.1,1.25-.14,1.92-.14,1.73,.06,3.11,.49,4.15,1.27,1.04,.78,1.8,1.85,2.28,3.19,2.21-3.01,4.93-4.51,8.16-4.51,2.69,0,4.65,.73,5.88,2.18,1.23,1.46,1.85,3.82,1.85,7.08v16.46h-5.47v-14.98c0-1.22-.08-2.22-.24-3.02-.16-.8-.39-1.43-.7-1.9-.3-.46-.7-.78-1.18-.96-.48-.18-1.02-.26-1.63-.26-.96,0-1.81,.18-2.54,.53-.74,.35-1.35,.82-1.85,1.39-.5,.58-.87,1.22-1.13,1.94-.26,.72-.38,1.46-.38,2.23v15.02h-5.47v-15.5c0-2.14-.33-3.62-.98-4.42-.66-.8-1.56-1.2-2.71-1.2-.48,0-1.06,.1-1.73,.31-.67,.21-1.32,.55-1.94,1.03s-1.16,1.12-1.61,1.92c-.45,.8-.67,1.78-.67,2.93v14.93h-5.42v-24.96h5.28Z"/><path class="cls-1" d="M569.85,214.85c-3.94,0-6.97-1.14-9.1-3.43-2.13-2.29-3.19-5.56-3.19-9.82,0-1.98,.28-3.79,.84-5.42,.56-1.63,1.37-3.02,2.42-4.18,1.06-1.15,2.35-2.05,3.89-2.69,1.54-.64,3.28-.96,5.23-.96s3.74,.33,5.28,.98c1.54,.66,2.82,1.56,3.86,2.71,1.04,1.15,1.82,2.54,2.35,4.15,.53,1.62,.79,3.38,.79,5.3,0,2.18-.3,4.09-.91,5.74-.61,1.65-1.46,3.04-2.57,4.18-1.1,1.14-2.41,1.99-3.91,2.57-1.5,.58-3.17,.86-4.99,.86Zm.05-4.42c2.3,0,3.99-.78,5.06-2.35,1.07-1.57,1.61-3.74,1.61-6.53s-.54-4.86-1.61-6.43c-1.07-1.57-2.76-2.35-5.06-2.35s-3.99,.78-5.06,2.35c-1.07,1.57-1.61,3.71-1.61,6.43s.52,4.88,1.56,6.48c1.04,1.6,2.74,2.4,5.11,2.4Z"/><path class="cls-1" d="M588.04,193.44h-3.89v-4.32h3.89v-1.44c0-2.62,.71-4.66,2.14-6.1,1.42-1.44,3.43-2.16,6.02-2.16,1.63,0,3.2,.22,4.7,.67l-.82,4.08c-.96-.29-1.92-.43-2.88-.43-1.18,0-2.1,.32-2.74,.96s-.96,1.58-.96,2.83v1.58h6.05v4.32h-6.05v20.64h-5.47v-20.64Z"/><path class="cls-1" d="M620.73,179.81h5.76l13.06,34.27h-6.19l-3.22-8.74h-13.3l-3.17,8.74h-6l13.06-34.27Zm7.82,20.69l-5.09-14.11-5.04,14.11h10.13Z"/><path class="cls-1" d="M647.32,189.12v3.7c.86-1.34,1.9-2.36,3.12-3.05,1.22-.69,2.51-1.03,3.89-1.03,.54,0,1,.02,1.37,.05,.37,.03,.73,.08,1.08,.14l-.62,4.99c-.35-.1-.74-.16-1.15-.19-.42-.03-.85-.05-1.3-.05-1.02,0-1.92,.17-2.69,.5-.77,.34-1.42,.78-1.94,1.32-.53,.54-.93,1.16-1.2,1.85-.27,.69-.41,1.38-.41,2.09v14.64h-5.42v-24.96h5.28Z"/><path class="cls-1" d="M658.22,193.44v-4.32h3.94v-6.72h5.42v6.72h6.19v4.32h-6.19v13.06c0,1.28,.26,2.21,.79,2.78,.53,.58,1.3,.86,2.33,.86,.54,0,1.06-.03,1.56-.1,.5-.06,.98-.18,1.46-.34l.82,4.08c-1.5,.51-3.17,.77-4.99,.77-2.75,0-4.67-.71-5.76-2.14-1.09-1.42-1.63-3.56-1.63-6.41v-12.58h-3.94Z"/></g></svg>